arm26_states
nRows=14
nColumns=17

# SIMM Motion File Header:
name arm26_states
datacolumns 17
datarows 14
otherdata 1
range 0.02999999999999999900 0.03008191000000000000
endheader
time	r_shoulder_elev	r_elbow_flex	r_shoulder_elev_u	r_elbow_flex_u	TRIlong.activation	TRIlong.fiber_length	TRIlat.activation	TRIlat.fiber_length	TRImed.activation	TRImed.fiber_length	BIClong.activation	BIClong.fiber_length	BICshort.activation	BICshort.fiber_length	BRA.activation	BRA.fiber_length
      0.02999999999999999900	     -0.31654740716416335000	      1.05299715655068620000	      1.77421291215276340000	      7.57535454865411580000	      0.01605627621158710000	      0.13656902856108843000	      0.02124056830457075500	      0.07081019288315802700	      0.02005643571875330100	      0.06589486732882386700	      0.00003182780882241437	      0.14845447549764371000	      0.00003182780882241437	      0.14773473436195436000	      0.00003182780882241437	      0.09318503964258508000
      0.03000001000000000100	     -0.31654738942203342000	      1.05299723230424310000	      1.77421307924819340000	      7.57535684203233740000	      0.01605627523434649500	      0.13656902861424600000	      0.02124056701591151000	      0.07081019292586884800	      0.02005643499444427500	      0.06589486736185090600	      0.00003182780086546316	      0.14845447548001817000	      0.00003182780086546316	      0.14773473434786272000	      0.00003182780086546316	      0.09318503962372246000
      0.03000003000000000000	     -0.31654735393776845000	      1.05299738381142570000	      1.77421341343924200000	      7.57536142879021220000	      0.01605627327985690800	      0.13656902872056115000	      0.02124056443858192400	      0.07081019301129049000	      0.02005643354581389600	      0.06589486742790501300	      0.00003182778495156670	      0.14845447544476709000	      0.00003182778495156670	      0.14773473431967940000	      0.00003182778495156670	      0.09318503958599719300
      0.03000007000000000000	     -0.31654728296921852000	      1.05299768682606640000	      1.77421408182209330000	      7.57537060231168540000	      0.01605626937084422500	      0.13656902893319142000	      0.02124055928387835700	      0.07081019318213381500	      0.02005643064850383400	      0.06589486756001326800	      0.00003182775312379766	      0.14845447537426484000	      0.00003182775312379766	      0.14773473426331271000	      0.00003182775312379766	      0.09318503951054658800
      0.03000015000000000000	     -0.31654714103203846000	      1.05299829285644870000	      1.77421541859081280000	      7.57538894937753150000	      0.01605626155268481700	      0.13656902935845214000	      0.02124054897429365400	      0.07081019352382063300	      0.02005642485368648600	      0.06589486782423001300	      0.00003182768946835507	      0.14845447523326014000	      0.00003182768946835507	      0.14773473415057914000	      0.00003182768946835507	      0.09318503935964506100
      0.03000030999999999900	     -0.31654685715735764000	      1.05299950492161610000	      1.77421809214032030000	      7.57542564360082070000	      0.01605624591582983600	      0.13656903020897437000	      0.02124052835441397200	      0.07081019420719486500	      0.02005641326326292400	      0.06589486835266449000	      0.00003182756215785182	      0.14845447495124989000	      0.00003182756215785182	      0.14773473392511119000	      0.00003182756215785182	      0.09318503905784082700
      0.03000063000000000000	     -0.31654628940671259000	      1.05300192906956450000	      1.77422343928760930000	      7.57549903241378520000	      0.01605621463997523900	      0.13656903191002184000	      0.02124048711181355700	      0.07081019557394580000	      0.02005639007926032100	      0.06589486940953738500	      0.00003182730753837304	      0.14845447438722617000	      0.00003182730753837304	      0.14773473347417215000	      0.00003182730753837304	      0.09318503845422761200
      0.03000127000000000000	     -0.31654515390028926000	      1.05300677743591440000	      1.77423413377529070000	      7.57564581150524230000	      0.01605615207968757300	      0.13656903531212866000	      0.02124040461524863100	      0.07081019830745755000	      0.02005634369863334600	      0.06589487152329889800	      0.00003182679830552630	      0.14845447325916578000	      0.00003182679830552630	      0.14773473257228137000	      0.00003182679830552630	      0.09318503724698229400
      0.03000254999999999900	     -0.31654288286690868000	      1.05301647445043310000	      1.77425552352312300000	      7.57593937555004880000	      0.01605602692479903000	      0.13656904211638998000	      0.02124023957666321500	      0.07081020377452086600	      0.02005625088689325100	      0.06589487575088491500	      0.00003182577986427567	      0.14845447100299317000	      0.00003182577986427567	      0.14773473076844892000	      0.00003182577986427567	      0.09318503483241601100
      0.03000510999999999800	     -0.31653834071800763000	      1.05303586960678210000	      1.77429830610912350000	      7.57652652708560040000	      0.01605577647777421300	      0.13656905572510439000	      0.02123990931767692100	      0.07081021470880748100	      0.02005606506147602700	      0.06589488420630981700	      0.00003182374307954218	      0.14845446649044058000	      0.00003182374307954218	      0.14773472716058067000	      0.00003182374307954218	      0.09318503000298077000
      0.03001022999999999900	     -0.31652925609160881000	      1.05307466442900450000	      1.77438388364609320000	      7.57770092392741910000	      0.01605527503477464900	      0.13656908294330866000	      0.02123924807249679200	      0.07081023657802754100	      0.02005569260295375600	      0.06589490111817820900	      0.00003181966990111709	      0.14845445746450608000	      0.00003181966990111709	      0.14773471994403070000	      0.00003181966990111709	      0.09318502034289991000
      0.03002047000000000000	     -0.31651108552412888000	      1.05315227211378740000	      1.77455508820849370000	      7.58005009259103700000	      0.01605426995330366500	      0.13656913738288440000	      0.02123792267374068800	      0.07081028031910946400	      0.02005494445564031900	      0.06589493494604623000	      0.00003181152510820080	      0.14845443940931916000	      0.00003181152510820080	      0.14773470550767698000	      0.00003181152510820080	      0.09318500101789810300
      0.03004095000000000000	     -0.31647473912807339000	      1.05330755966261820000	      1.77489769550910600000	      7.58474992903790480000	      0.01605225101109664100	      0.13656924627522635000	      0.02123526024611904400	      0.07081036781227723100	      0.02005343524379626200	      0.06589500261876106400	      0.00003179524177623581	      0.14845440328567025000	      0.00003179524177623581	      0.14773467662195389000	      0.00003179524177623581	      0.09318496234854585500
      0.03008191000000000000	     -0.31640202527261524000	      1.05361842362052750000	      1.77558370448229060000	      7.59415559236908240000	      0.01604817803059138300	      0.13656946411682444000	      0.02122988889821615300	      0.07081054284610655000	      0.02005036518209176600	      0.06589513803572155700	      0.00003176270011283898	      0.14845433098524605000	      0.00003176270011283898	      0.14773461879844499000	      0.00003176270011283898	      0.09318488493253754300
